<svg id="Layer_1" enable-background="new 0 0 512 512" height="512" viewBox="0 0 512 512" width="512" xmlns="http://www.w3.org/2000/svg"><g><g><path d="m67.913 422.464c-46.038 43.069-34.52 82.036 0 82.036s46.038-38.967 0-82.036z" fill="#81ebeb"/><path d="m156.957 354.489c-27.345 25.582-20.503 48.727 0 48.727s27.344-23.146 0-48.727z" fill="#00cec8"/><path d="m444.087 422.464c46.038 43.069 34.52 82.036 0 82.036s-46.038-38.967 0-82.036z" fill="#81ebeb"/><path d="m256 408.841c53.682 50.221 40.252 95.659 0 95.659s-53.682-45.438 0-95.659z" fill="#81ebeb"/><path d="m357.043 364.485c33.594 31.428 25.189 59.863 0 59.863s-33.594-28.435 0-59.863z" fill="#00cec8"/></g><path d="m468.56 204.65c0 8.39-1.11 16.51-3.19 24.24l-27.8 6.38-271.74 62.32h-65.36c-51.34 0-92.97-41.61-92.97-92.94 0-44.68 31.55-81.99 73.59-90.91 4.37-32.8 21.72-61.51 46.71-80.79 20.7-15.95 46.65-25.45 74.82-25.45 42.95 0 80.73 22.08 102.63 55.49 7.35-2.36 15.18-3.66 23.32-3.66 35.13 0 64.67 23.83 73.39 56.18 38.5 11.37 66.6 46.97 66.6 89.14z" fill="#eef0f5"/><path d="m468.56 204.65c0 8.39-1.11 16.51-3.19 24.24l-27.8 6.38c.65-4.44.99-8.99.99-13.62 0-42.17-28.1-77.77-66.6-89.14-8.72-32.35-38.26-56.18-73.39-56.18-8.14 0-15.97 1.3-23.32 3.66-21.9-33.41-59.68-55.49-102.63-55.49-15.82 0-30.94 3-44.82 8.45 20.7-15.95 46.65-25.45 74.82-25.45 42.95 0 80.73 22.08 102.63 55.49 7.35-2.36 15.18-3.66 23.32-3.66 35.13 0 64.67 23.83 73.39 56.18 38.5 11.37 66.6 46.97 66.6 89.14z" fill="#dae1ea"/><path d="m504.5 266.21c0 18.12-8.11 34.34-20.91 45.23-10.37 8.85-23.82 14.18-38.52 14.18-20.66 0-38.86-10.54-49.51-26.53-16.16 16.37-38.6 26.53-63.43 26.53-16.73 0-32.37-4.62-45.75-12.63-11.15 7.94-24.78 12.63-39.51 12.63-37.64 0-68.16-30.51-68.16-68.14 0-37.62 30.52-68.13 68.16-68.13 3.15 0 6.24.23 9.28.65 15.67-25.52 43.84-42.54 75.98-42.54 41.15 0 75.76 27.89 86.01 65.78 8.09-4.11 17.23-6.45 26.93-6.45 32.82 0 59.43 26.6 59.43 59.42z" fill="#dae1ea"/><path d="m504.5 266.21c0 18.12-8.11 34.34-20.91 45.23 2.53-6.59 3.91-13.75 3.91-21.23 0-32.82-26.61-59.42-59.43-59.42-9.7 0-18.84 2.34-26.93 6.45-10.25-37.89-44.86-65.78-86.01-65.78-32.85 0-47.12 12.7-58.98 18.54 15.67-25.52 43.84-42.54 75.98-42.54 41.15 0 75.76 27.89 86.01 65.78 8.09-4.11 17.23-6.45 26.93-6.45 32.82 0 59.43 26.6 59.43 59.42z" fill="#b9cfdf"/></g><g><path d="m15 204.652c0-40.116 28.45-75.263 67.647-83.572 3.105-.658 5.46-3.201 5.879-6.347 1.841-13.827 6.139-27.057 12.775-39.323 1.971-3.643.615-8.194-3.028-10.166-3.644-1.972-8.194-.615-10.166 3.028-6.683 12.353-11.269 25.568-13.665 39.356-20.165 5.407-38.376 17.134-51.714 33.4-14.656 17.876-22.728 40.472-22.728 63.624 0 18.625 5.14 36.813 14.863 52.597 1.417 2.3 3.876 3.567 6.393 3.567 1.342 0 2.7-.36 3.926-1.115 3.527-2.173 4.625-6.793 2.452-10.319-8.265-13.417-12.634-28.884-12.634-44.73z"/><path d="m100.472 275.101c4.142 0 7.5-3.358 7.5-7.5s-3.358-7.5-7.5-7.5c-30.587 0-55.472-24.874-55.472-55.448 0-4.142-3.358-7.5-7.5-7.5s-7.5 3.358-7.5 7.5c0 38.845 31.614 70.448 70.472 70.448z"/><path d="m476.038 206.899c.017-.75.025-1.499.025-2.246 0-22.111-7.05-43.085-20.389-60.655-12.064-15.891-28.869-28.002-47.651-34.422-11.072-34.201-43.164-57.74-79.452-57.74-6.827 0-13.595.83-20.189 2.471-24.457-34.108-63.589-54.307-105.764-54.307-34.876 0-67.631 13.612-92.23 38.329-2.922 2.936-2.911 7.685.025 10.606 2.936 2.922 7.685 2.911 10.606-.025 21.764-21.867 50.743-33.91 81.599-33.91 38.955 0 74.976 19.478 96.356 52.104 1.85 2.823 5.356 4.064 8.571 3.028 6.797-2.188 13.872-3.298 21.025-3.298 30.915 0 58.117 20.82 66.15 50.632.679 2.518 2.617 4.503 5.118 5.242 17.32 5.113 32.906 15.895 43.887 30.359 10.647 14.025 16.582 30.604 17.269 48.142-5.107-1.251-10.442-1.915-15.93-1.915-7.7 0-15.167 1.278-22.292 3.809-2.977-8.072-7.023-15.698-12.083-22.758-2.413-3.367-7.098-4.14-10.465-1.727s-4.14 7.099-1.727 10.465c5.692 7.941 9.865 16.729 12.405 26.12.589 2.181 2.131 3.979 4.196 4.896 2.063.917 4.432.854 6.446-.17 7.345-3.739 15.258-5.634 23.521-5.634 28.637 0 51.935 23.288 51.935 51.913s-23.298 51.913-51.935 51.913c-17.416 0-33.587-8.669-43.259-23.19-1.25-1.877-3.28-3.093-5.526-3.308-2.246-.219-4.469.592-6.054 2.198-15.464 15.67-36.097 24.301-58.095 24.301-14.781 0-29.268-4-41.894-11.566-2.557-1.533-5.779-1.405-8.208.325-10.319 7.354-22.477 11.241-35.159 11.241-33.448 0-60.66-27.201-60.66-60.635s27.212-60.635 60.66-60.635c2.675 0 5.457.194 8.269.577 2.944.397 5.846-.974 7.401-3.505 14.987-24.394 41.003-38.958 69.591-38.958 14.87 0 29.419 4.035 42.075 11.669 3.548 2.141 8.157.998 10.296-2.549s.998-8.156-2.549-10.296c-14.994-9.044-32.222-13.824-49.822-13.824-32.243 0-61.719 15.647-79.772 42.094-1.853-.138-3.687-.208-5.489-.208-41.719 0-75.66 33.93-75.66 75.635 0 11.668 2.657 22.727 7.397 32.605h-78.134c-18.02 0-35.25-5.537-49.83-16.013-3.363-2.417-8.05-1.649-10.467 1.714-2.417 3.364-1.649 8.05 1.714 10.467 17.146 12.32 37.403 18.832 58.583 18.832h87.644c13.884 17.09 35.064 28.03 58.753 28.03 14.198 0 27.869-3.906 39.831-11.338 13.935 7.431 29.54 11.338 45.431 11.338 23.169 0 45.057-8.085 62.495-22.931 12.634 14.492 30.931 22.931 50.44 22.931 36.908 0 66.935-30.017 66.935-66.913-.002-25.733-14.607-48.119-35.964-59.31z"/><path d="m73.037 416.986c-2.884-2.697-7.364-2.697-10.248 0-27.053 25.31-38.337 52.747-30.185 73.396 5.345 13.536 18.544 21.618 35.309 21.618s29.964-8.082 35.309-21.618c8.153-20.649-3.132-48.086-30.185-73.396zm16.233 67.888c-3.088 7.819-10.672 12.126-21.357 12.126s-18.269-4.307-21.356-12.126c-4.175-10.575-.471-29.445 21.356-51.911 21.828 22.465 25.532 41.336 21.357 51.911z"/><path d="m162.08 349.012c-2.883-2.697-7.364-2.697-10.247 0-17.017 15.919-24 33.466-18.681 46.937 3.651 9.247 12.55 14.767 23.805 14.767s20.153-5.521 23.805-14.767c5.318-13.471-1.665-31.018-18.682-46.937zm4.729 41.428c-1.813 4.59-6.951 5.276-9.853 5.276s-8.04-.686-9.853-5.276c-1.903-4.819-.183-13.99 9.853-25.247 10.036 11.257 11.756 20.428 9.853 25.247z"/><path d="m449.211 416.986c-2.884-2.697-7.364-2.697-10.248 0-27.053 25.31-38.337 52.747-30.185 73.396 5.345 13.536 18.544 21.618 35.309 21.618s29.964-8.082 35.309-21.618c8.152-20.649-3.132-48.086-30.185-73.396zm16.232 67.888c-3.087 7.82-10.672 12.126-21.356 12.126s-18.269-4.307-21.356-12.126c-4.175-10.575-.471-29.445 21.356-51.911 21.828 22.465 25.532 41.336 21.356 51.911z"/><path d="m261.124 403.364c-2.882-2.696-7.363-2.697-10.247 0-10.377 9.708-18.805 19.686-25.048 29.657-2.198 3.511-1.135 8.139 2.376 10.337 3.511 2.199 8.14 1.135 10.337-2.376 4.511-7.204 10.369-14.474 17.461-21.675 26.649 27.024 31.128 49.928 26.06 62.765-3.748 9.487-13.247 14.928-26.063 14.928-9.339 0-16.87-2.795-21.779-8.082-4.546-4.896-6.628-11.8-6.021-19.964.307-4.131-2.793-7.728-6.924-8.035-4.125-.308-7.728 2.793-8.035 6.924-.924 12.432 2.53 23.25 9.988 31.282 7.709 8.302 19.347 12.875 32.771 12.875 19.018 0 33.976-9.129 40.013-24.419 9.312-23.584-3.731-55.067-34.889-84.217z"/><path d="m362.167 359.008c-2.883-2.697-7.364-2.697-10.247 0-20.372 19.058-28.793 39.911-22.527 55.782 4.217 10.681 14.554 17.058 27.65 17.058s23.434-6.376 27.65-17.058c6.267-15.871-2.154-36.724-22.526-55.782zm8.575 50.274c-2.599 6.583-9.698 7.566-13.699 7.566s-11.1-.983-13.699-7.566c-3.934-9.963 4.087-23.616 13.699-34.134 9.612 10.518 17.633 24.17 13.699 34.134z"/></g></svg>