<svg id="Layer_5" enable-background="new 0 0 64 64" height="512" viewBox="0 0 64 64" width="512" xmlns="http://www.w3.org/2000/svg"><g><g><g><path d="m61 27-5 5 5 5-6 2 4 7h-7l1 7-7-2-1 8-5-4-3 6-5-5-5 5-3-6-6 4v-7l-7 1 1-7h-7l4-7-6-2 5-5-5-5 6-2-4-7h7l-1-7 7 1v-7l6 4 3-6 5 5 5-5 3 6 6-4v7l7-1-1 7h7l-4 7z" fill="#ffc729"/></g><g><circle cx="32" cy="32" fill="#fcd770" r="20"/></g></g><g><path d="m32 11c-11.579 0-21 9.42-21 21s9.421 21 21 21 21-9.42 21-21-9.421-21-21-21zm0 40c-10.477 0-19-8.523-19-19s8.523-19 19-19 19 8.523 19 19-8.523 19-19 19z"/><path d="m17 32h-2c0 9.374 7.626 17 17 17v-2c-8.271 0-15-6.729-15-15z"/><path d="m57.414 32 5.438-5.437-6.378-2.126 4.25-7.437h-7.57l1.025-7.179-7.179 1.026v-7.716l-6.612 4.409-3.113-6.228-5.275 5.274-5.274-5.274-3.114 6.228-6.612-4.409v7.716l-7.179-1.026 1.026 7.179h-7.57l4.25 7.437-6.378 2.126 5.437 5.437-5.438 5.437 6.378 2.126-4.25 7.437h7.57l-1.025 7.179 7.179-1.026v7.716l6.612-4.408 3.113 6.228 5.275-5.275 5.274 5.274 3.066-6.134 5.43 4.343 1.077-8.615 7.36 2.103-1.054-7.385h7.57l-4.25-7.437 6.378-2.126zm-.138 13h-6.43l.945 6.615-6.64-1.897-.923 7.385-4.57-3.657-2.934 5.866-4.724-4.726-4.726 4.726-2.887-5.772-5.387 3.591v-6.284l-6.821.974.974-6.821h-6.43l3.75-6.563-5.622-1.874 4.563-4.563-4.563-4.563 5.622-1.874-3.749-6.563h6.43l-.975-6.821 6.821.974v-6.284l5.388 3.592 2.887-5.772 4.725 4.725 4.726-4.726 2.887 5.772 5.387-3.591v6.284l6.821-.974-.974 6.821h6.43l-3.75 6.563 5.622 1.874-4.563 4.563 4.563 4.563-5.622 1.874z"/></g></g></svg>